<svg xmlns="http://www.w3.org/2000/svg" viewBox="0 0 1200 630" width="1200" height="630">
  <defs>
    <linearGradient id="bg" x1="0" y1="0" x2="1" y2="1">
      <stop offset="0" stop-color="#201a17"/>
      <stop offset="1" stop-color="#14100e"/>
    </linearGradient>
    <linearGradient id="badge" x1="0" y1="0" x2="1" y2="1">
      <stop offset="0" stop-color="#ff7a1f"/>
      <stop offset="1" stop-color="#d35400"/>
    </linearGradient>
  </defs>
  <rect width="1200" height="630" fill="url(#bg)"/>
  <rect x="0" y="0" width="1200" height="8" fill="url(#badge)"/>
  <g transform="translate(96,150)">
    <rect x="0" y="0" width="120" height="120" rx="26" fill="url(#badge)"/>
    <g transform="translate(60,60) scale(3.4) translate(-16,-16)">
      <path d="M16 6 l7 4 v8 l-7 4 -7-4 v-8 z" fill="none" stroke="#fff" stroke-width="1.6" stroke-linejoin="round" opacity="0.5"/>
      <path d="M16 10 c3 3 4 5 4 7 a4 4 0 0 1 -8 0 c0-1.5 1.2-3.2 4-7 z" fill="#fff"/>
    </g>
  </g>
  <text x="240" y="205" font-family="Verdana, Geneva, sans-serif" font-size="76" font-weight="700" fill="#ffffff">smithy-hono</text>
  <text x="240" y="256" font-family="Verdana, Geneva, sans-serif" font-size="27" fill="#ff9e60">Smithy model &#8594; deployable Hono API</text>
  <text x="96" y="360" font-family="Verdana, Geneva, sans-serif" font-size="34" fill="#e6ddd7">Generate a secure, deployable Hono API server</text>
  <text x="96" y="410" font-family="Verdana, Geneva, sans-serif" font-size="34" fill="#e6ddd7">— routes, Zod, typed errors, SSE, MCP — from a Smithy model.</text>
  <g font-family="Verdana, Geneva, sans-serif" font-size="24" fill="#b9ada4">
    <text x="96" y="520">codegen plugin</text>
    <text x="360" y="520">security pipeline</text>
    <text x="660" y="520">deploy adapters</text>
    <text x="960" y="520">MCP bridge</text>
  </g>
  <text x="96" y="585" font-family="Verdana, Geneva, sans-serif" font-size="26" font-weight="700" fill="#ff8c42">smithy-hono.com</text>
</svg>
